<?xml version="1.0" encoding="UTF-8" standalone="no"?>
<svg
   xmlns:dc="http://purl.org/dc/elements/1.1/"
   xmlns:cc="http://creativecommons.org/ns#"
   xmlns:rdf="http://www.w3.org/1999/02/22-rdf-syntax-ns#"
   xmlns:svg="http://www.w3.org/2000/svg"
   xmlns="http://www.w3.org/2000/svg"
   id="svg8"
   version="1.1"
   viewBox="0 0 233.4203 180.37023"
   height="7.1011901in"
   width="9.1897755in">
  <defs
     id="defs2" />
  <metadata
     id="metadata5">
    <rdf:RDF>
      <cc:Work
         rdf:about="">
        <dc:format>image/svg+xml</dc:format>
        <dc:type
           rdf:resource="http://purl.org/dc/dcmitype/StillImage" />
        <dc:title></dc:title>
      </cc:Work>
    </rdf:RDF>
  </metadata>
  <g
     transform="translate(-2.5702744,-114.43752)"
     id="layer1">
    <g
       transform="translate(1.2095309,0.30238387)"
       id="g826">
      <path
         id="path830"
         d="M 2.5702744,204.62263 V 114.43752 H 119.28042 235.99056 v 90.18511 90.18511 H 119.28042 2.5702744 Z"
         style="fill:#ffffff;stroke-width:0.07073342" />
      <path
         id="path828"
         d="m 159.10334,280.04859 c 0,-0.15492 0.0897,-0.29369 0.36012,-0.55729 1.08668,-1.05917 4.70498,-4.9831 6.71563,-7.28289 12.38714,-14.16848 20.54691,-27.81443 24.46822,-40.91928 1.30337,-4.35576 2.10863,-8.52658 2.52649,-13.08568 0.18036,-1.96779 0.18084,-6.82031 8.5e-4,-8.77095 -0.75627,-8.19725 -3.1122,-15.58517 -7.29618,-22.87994 -6.21702,-10.83944 -16.54384,-20.97316 -29.60447,-29.05096 -2.13318,-1.31933 -6.12781,-3.59483 -6.31072,-3.59483 -0.0304,0 -0.0553,4.1379 -0.0553,9.19534 v 9.19535 h 6.96724 6.96724 v 0.21232 c 0,0.15416 -3.18199,12.5834 -4.60401,17.98385 l -0.0698,0.26525 h -4.63221 -4.6322 l 0.0223,11.1582 c 0.0222,11.14533 0.0225,11.15893 0.17478,11.79479 0.41351,1.72619 1.02242,2.88412 2.04799,3.89461 1.73864,1.7131 4.41004,2.5927 8.19191,2.69733 2.23319,0.0618 3.99585,-0.12554 5.19794,-0.55244 0.33121,-0.11762 0.70565,-0.23103 0.83208,-0.25202 0.21725,-0.0361 0.22989,-0.0264 0.22989,0.1765 0,0.17611 -5.9771,21.00163 -6.05031,21.08059 -0.0124,0.0134 -0.33524,0.0757 -0.71735,0.13844 -0.8598,0.14114 -4.90909,0.15557 -6.60096,0.0235 -6.1974,-0.48372 -10.68687,-1.84915 -14.58363,-4.43551 -3.18318,-2.11273 -5.51508,-4.80932 -7.27447,-8.41213 -1.58684,-3.24944 -2.45677,-6.93251 -2.75637,-11.66981 -0.0435,-0.68861 -0.0715,-5.92122 -0.0715,-13.3863 v -12.25577 h -6.96724 c -6.58727,0 -6.96739,-0.007 -6.97001,-0.12378 -0.002,-0.0681 1.07254,-4.2219 2.38678,-9.23071 l 2.38953,-9.10693 h 4.58047 4.58047 v -12.95182 -12.95181 l 10.62769,0.0515 c 5.84524,0.0283 10.65157,0.0654 10.68075,0.0825 0.0292,0.0171 0.0531,1.15539 0.0531,2.52963 v 2.49863 l 0.47745,0.0489 c 0.88038,0.0902 3.29868,0.5234 4.58083,0.8205 1.94849,0.45151 3.14548,0.79324 5.30417,1.51426 3.13079,1.04572 5.7673,2.14186 8.94777,3.72006 6.11796,3.03583 11.57524,6.57211 18.00166,11.66494 0.81697,0.64744 1.8037,1.40274 2.19274,1.67845 2.63235,1.86554 4.96382,2.92717 7.12832,3.24586 4.10644,0.60461 7.43105,-2.37079 9.37673,-8.39181 1.11826,-3.46054 1.78515,-7.53479 2.13555,-13.04688 0.1811,-2.8488 0.15124,-9.86398 -0.0487,-11.44113 -0.0425,-0.33498 -0.042,-0.33598 0.16752,-0.33598 h 0.2101 l 0.68102,2.28115 c 4.76676,15.96685 7.66844,31.05223 8.56811,44.54437 0.25105,3.76504 0.28569,4.94336 0.28596,9.72584 0,5.75353 -0.14366,8.74084 -0.64086,13.29789 -2.04053,18.70248 -8.60013,34.31534 -19.61386,46.68405 -1.84378,2.07063 -5.09785,5.21347 -7.40637,7.15325 -7.22793,6.07339 -16.15313,11.03871 -25.06971,13.9469 -2.00707,0.65461 -4.89091,1.43 -5.73496,1.54196 -0.34798,0.0462 -0.34811,0.0461 -0.34811,-0.16011 z M 56.327675,273.38345 c -0.704049,-0.22788 -1.152394,-0.50771 -1.699983,-1.061 -0.888648,-0.89791 -1.197997,-1.68535 -1.197997,-3.04947 0,-1.36727 0.310649,-2.15657 1.197997,-3.04392 0.57977,-0.57977 1.138962,-0.91726 1.809022,-1.09178 0.552593,-0.14394 1.917062,-0.14397 2.469546,-7e-5 1.525424,0.39733 2.700014,1.66522 2.979543,3.21623 0.124915,0.6931 0.140516,4.6725 0.01922,4.90294 -0.119479,0.22699 -0.195867,0.25832 -0.632732,0.25952 -0.518366,0.001 -0.629881,-0.11531 -0.629881,-0.65932 v -0.40169 l -0.406717,0.27515 c -0.950214,0.64282 -1.438537,0.78824 -2.629975,0.78314 -0.651102,-0.003 -0.993123,-0.0375 -1.278046,-0.12973 z m 2.498249,-1.47697 c 0.87724,-0.41051 1.595244,-1.34442 1.733211,-2.25439 0.173821,-1.14645 -0.560124,-2.43031 -1.714091,-2.99841 -1.242765,-0.61181 -2.713138,-0.15904 -3.581292,1.10277 -0.266754,0.38772 -0.492213,1.07793 -0.492213,1.50684 0,0.79405 0.472464,1.72315 1.149449,2.26041 0.628432,0.49872 1.093704,0.65552 1.859932,0.62681 0.462087,-0.0173 0.658556,-0.0632 1.045004,-0.24403 z m 4.479955,1.48115 c -0.10467,-0.11566 -0.117063,-0.41826 -0.117063,-2.8584 0,-2.47976 0.01224,-2.76839 0.134009,-3.15962 0.171531,-0.55113 0.480071,-1.02945 0.951875,-1.47567 0.721748,-0.6826 1.368873,-0.89261 2.617021,-0.84932 1.028123,0.0357 1.434281,0.16867 2.063802,0.67583 0.483559,0.38956 0.88129,0.92502 1.109658,1.49392 0.15396,0.38354 0.159869,0.48644 0.182522,3.17824 0.02765,3.28603 0.06119,3.12437 -0.64818,3.12437 -0.718751,0 -0.6813,0.14638 -0.6813,-2.66291 0,-2.00082 -0.01904,-2.46835 -0.113501,-2.78642 -0.279327,-0.9406 -1.062506,-1.60411 -1.980376,-1.67779 -0.368249,-0.0296 -0.500146,-0.006 -0.850882,0.15445 -0.501361,0.22882 -0.962025,0.65934 -1.216784,1.13716 l -0.188562,0.35367 -0.03537,2.64062 c -0.04058,3.02963 0.0065,2.84122 -0.70989,2.84122 -0.297604,0 -0.429868,-0.0331 -0.516982,-0.12935 z m 10.966249,0.0232 c -1.182997,-0.32521 -2.311099,-1.35493 -2.740554,-2.50155 -0.356723,-0.95242 -0.338535,-2.40789 0.04193,-3.35528 0.461179,-1.14838 1.549555,-2.10175 2.75901,-2.41678 0.5655,-0.14729 1.866238,-0.1441 2.371232,0.006 0.450784,0.13383 1.139049,0.46762 1.458155,0.70718 0.12384,0.093 0.243203,0.16904 0.265251,0.16904 0.02205,0 0.04008,-0.89124 0.04008,-1.98053 0,-2.32803 -0.01986,-2.26347 0.696371,-2.26347 0.699072,0 0.64772,-0.33754 0.646518,4.24957 -0.0011,4.40129 -0.0098,4.50608 -0.440429,5.32822 -0.302753,0.57804 -1.167045,1.44539 -1.715894,1.72198 -0.727033,0.36637 -1.097592,0.44262 -2.117157,0.43565 -0.526894,-0.004 -1.070636,-0.0465 -1.264516,-0.0998 z m 2.108471,-1.34819 c 1.223936,-0.38168 2.17673,-1.76099 2.062375,-2.98559 -0.124251,-1.33057 -1.346948,-2.5554 -2.674721,-2.67939 -1.710582,-0.15974 -3.339618,1.57518 -3.08599,3.28657 0.168893,1.13964 1.235795,2.24436 2.402238,2.48741 0.369908,0.0771 0.821046,0.0391 1.296098,-0.109 z m 10.763251,1.31103 c -0.865643,-0.30483 -1.511362,-0.88728 -1.936144,-1.74645 l -0.268363,-0.54279 -0.02137,-2.8943 c -0.02474,-3.34876 -0.06154,-3.16115 0.620056,-3.16115 0.716388,0 0.669308,-0.18841 0.709888,2.84123 0.03486,2.60277 0.03778,2.64551 0.203585,2.9823 0.24814,0.50401 0.774057,0.99599 1.261396,1.18 1.000807,0.37788 2.124563,-0.11985 2.641264,-1.16987 0.171776,-0.34907 0.173424,-0.37228 0.21145,-2.96896 0.02108,-1.43942 0.04495,-2.62282 0.05305,-2.62977 0.0081,-0.007 0.06474,-0.0626 0.125877,-0.12378 0.07538,-0.0754 0.242595,-0.11115 0.519537,-0.11115 0.664887,0 0.630355,-0.14652 0.65879,2.79494 0.02168,2.24315 0.03975,2.58528 0.152141,2.88101 0.184748,0.48611 0.676982,0.99836 1.212851,1.26217 0.39591,0.19491 0.508142,0.21914 0.89724,0.19371 0.564898,-0.0369 1.024425,-0.26347 1.443846,-0.71187 0.62575,-0.66898 0.622899,-0.65348 0.663119,-3.59759 0.02801,-2.05005 0.05557,-2.61305 0.132441,-2.70555 0.14895,-0.17923 0.883057,-0.16232 1.070027,0.0247 0.136282,0.13628 0.141467,0.23577 0.141467,2.71358 0,1.41466 -0.0318,2.74356 -0.07065,2.95312 -0.184558,0.99531 -0.954272,1.97372 -1.908473,2.42592 -0.451873,0.21414 -0.48267,0.21855 -1.525854,0.21855 h -1.064665 l -0.530048,-0.26196 c -0.293112,-0.14487 -0.697354,-0.42237 -0.904341,-0.62083 l -0.374293,-0.35887 -0.418509,0.38746 c -0.23018,0.2131 -0.63324,0.49195 -0.895697,0.61966 -0.457702,0.22272 -0.51617,0.233 -1.432083,0.25204 -0.815691,0.017 -1.015053,-10e-4 -1.367531,-0.12545 z m 14.50211,0.0372 c -1.18299,-0.32521 -2.311099,-1.35493 -2.74055,-2.50155 -0.356723,-0.95242 -0.338537,-2.40789 0.04193,-3.35528 0.461174,-1.14838 1.54955,-2.10175 2.75901,-2.41678 0.53925,-0.14045 1.91249,-0.14264 2.43391,-0.004 0.71525,0.19035 1.27658,0.52357 1.84177,1.09332 0.84113,0.84793 1.12856,1.60738 0.76089,2.01046 -0.0984,0.10794 -1.28923,0.68183 -3.12236,1.50482 l -2.96321,1.33034 0.33992,0.29912 c 0.45609,0.40133 1.03802,0.70045 1.56109,0.80239 1.10038,0.21448 2.44581,-0.56884 3.00637,-1.75032 0.12486,-0.26318 0.26199,-0.50189 0.30473,-0.53047 0.0427,-0.0286 0.2558,-0.0525 0.47346,-0.0531 0.51525,-10e-4 0.62988,0.11643 0.62988,0.64747 0,0.57712 -0.3162,1.16447 -0.98492,1.82949 -0.58263,0.57941 -1.14441,0.91791 -1.81199,1.09178 -0.51728,0.13474 -2.04292,0.13604 -2.52993,0.002 z m 3.41482,-5.95112 c 0.0689,-0.0689 -0.54158,-0.52722 -1.03106,-0.77408 -1.09361,-0.55156 -2.17365,-0.33657 -3.12989,0.62304 -0.5445,0.54641 -0.80652,1.12345 -0.84526,1.86149 l -0.031,0.591 2.50147,-1.13359 c 1.37581,-0.62347 2.5169,-1.14901 2.53575,-1.16786 z m 3.39743,5.91581 c -0.13908,-0.13907 -0.14147,-0.23577 -0.14147,-5.7294 0,-5.49363 0.002,-5.59033 0.14147,-5.72941 0.10919,-0.1092 0.23577,-0.14147 0.5549,-0.14147 0.7083,0 0.64756,-0.55175 0.64756,5.88317 0,6.43541 0.065,5.85858 -0.65985,5.85858 -0.30684,0 -0.43441,-0.0333 -0.54261,-0.14147 z m 3.25373,0 c -0.13907,-0.13907 -0.14146,-0.23577 -0.14146,-5.7294 0,-5.49363 0.002,-5.59033 0.14146,-5.72941 0.1092,-0.1092 0.23578,-0.14147 0.55491,-0.14147 0.70829,0 0.64756,-0.55175 0.64756,5.88317 0,6.43541 0.065,5.85858 -0.65985,5.85858 -0.30684,0 -0.43441,-0.0333 -0.54262,-0.14147 z m 2.87567,0.0121 c -0.10467,-0.11566 -0.11706,-0.41826 -0.11706,-2.8584 0,-2.47976 0.0122,-2.76839 0.13401,-3.15962 0.17153,-0.55113 0.48007,-1.02945 0.95187,-1.47567 0.72175,-0.6826 1.36887,-0.89261 2.61702,-0.84932 1.02812,0.0357 1.43428,0.16867 2.0638,0.67583 0.48356,0.38956 0.88129,0.92502 1.10966,1.49392 0.15396,0.38354 0.15987,0.48644 0.18252,3.17824 0.0277,3.28603 0.0612,3.12437 -0.64818,3.12437 -0.71875,0 -0.6813,0.14638 -0.6813,-2.66291 0,-2.00082 -0.019,-2.46835 -0.11349,-2.78642 -0.27933,-0.9406 -1.06251,-1.60411 -1.98039,-1.67779 -0.36824,-0.0296 -0.50014,-0.006 -0.85088,0.15445 -0.50135,0.22882 -0.96202,0.65934 -1.21678,1.13716 l -0.18856,0.35367 -0.0354,2.64062 c -0.0406,3.02963 0.007,2.84122 -0.70989,2.84122 -0.2976,0 -0.42986,-0.0331 -0.51698,-0.12935 z m 10.89552,0.0232 c -1.183,-0.32521 -2.31111,-1.35493 -2.74056,-2.50155 -0.35672,-0.95242 -0.33853,-2.40789 0.0419,-3.35528 0.46118,-1.14838 1.54955,-2.10175 2.75901,-2.41678 0.53925,-0.14045 1.91249,-0.14264 2.43392,-0.004 0.71524,0.19035 1.27657,0.52357 1.84176,1.09332 0.84113,0.84793 1.12856,1.60738 0.76089,2.01046 -0.0985,0.10794 -1.28923,0.68183 -3.12235,1.50482 l -2.96322,1.33034 0.33993,0.29912 c 0.45608,0.40133 1.03802,0.70045 1.56108,0.80239 1.10038,0.21448 2.44582,-0.56884 3.00637,-1.75032 0.12487,-0.26318 0.262,-0.50189 0.30473,-0.53047 0.0427,-0.0286 0.25581,-0.0525 0.47347,-0.0531 0.51524,-10e-4 0.62988,0.11643 0.62988,0.64747 0,0.57712 -0.31621,1.16447 -0.98492,1.82949 -0.58263,0.57941 -1.14442,0.91791 -1.812,1.09178 -0.51728,0.13474 -2.04292,0.13604 -2.52992,0.002 z m 3.41481,-5.95112 c 0.0689,-0.0689 -0.54158,-0.52722 -1.03106,-0.77408 -1.09361,-0.55156 -2.17365,-0.33657 -3.12989,0.62304 -0.5445,0.54641 -0.80651,1.12345 -0.84525,1.86149 l -0.031,0.591 2.50147,-1.13359 c 1.37582,-0.62347 2.5169,-1.14901 2.53575,-1.16786 z m 2.83156,5.91581 c -0.19236,-0.19236 -0.19603,-0.76567 -0.006,-1.00011 0.13205,-0.16325 0.16724,-0.16778 1.57382,-0.20235 0.89791,-0.0221 1.49193,-0.0662 1.58022,-0.11729 0.22718,-0.13156 0.44451,-0.39478 0.56598,-0.6855 0.25401,-0.60794 -0.15395,-1.06018 -1.2558,-1.39207 -1.55285,-0.46773 -1.91616,-0.65677 -2.20305,-1.14631 -0.38563,-0.65805 -0.38852,-1.9915 -0.006,-2.64471 0.24091,-0.41107 0.8229,-0.91233 1.214,-1.04559 0.25319,-0.0863 0.62279,-0.11261 1.58014,-0.11261 1.13226,0 1.26091,0.0125 1.36972,0.1327 0.28354,0.3133 0.20065,0.97537 -0.14163,1.13133 -0.10267,0.0468 -0.57111,0.0799 -1.12978,0.0799 -0.81116,0 -0.99554,0.021 -1.22855,0.13986 -0.56403,0.28775 -0.79979,0.96377 -0.50338,1.44338 0.21731,0.35162 0.4837,0.4919 1.49051,0.78495 1.1002,0.32021 1.41012,0.46677 1.72565,0.81602 0.35261,0.39031 0.49444,0.9242 0.45045,1.69571 -0.0574,1.00603 -0.44999,1.63774 -1.27378,2.04938 l -0.42978,0.21477 h -1.61557 c -1.52127,0 -1.62384,-0.008 -1.75704,-0.14147 z m 5.80014,0 c -0.19236,-0.19236 -0.19603,-0.76567 -0.006,-1.00011 0.13204,-0.16325 0.16723,-0.16778 1.57381,-0.20235 0.89791,-0.0221 1.49193,-0.0662 1.58022,-0.11729 0.22718,-0.13156 0.44451,-0.39478 0.56598,-0.6855 0.25402,-0.60794 -0.15395,-1.06018 -1.2558,-1.39207 -1.55285,-0.46773 -1.91616,-0.65677 -2.20305,-1.14631 -0.38563,-0.65805 -0.38852,-1.9915 -0.006,-2.64471 0.24091,-0.41107 0.8229,-0.91233 1.214,-1.04559 0.25319,-0.0863 0.62279,-0.11261 1.58014,-0.11261 1.13226,0 1.26091,0.0125 1.36972,0.1327 0.28354,0.3133 0.20065,0.97537 -0.14163,1.13133 -0.10267,0.0468 -0.57111,0.0799 -1.12978,0.0799 -0.81116,0 -0.99554,0.021 -1.22855,0.13986 -0.56403,0.28775 -0.79979,0.96377 -0.50338,1.44338 0.21732,0.35162 0.4837,0.4919 1.49051,0.78495 1.1002,0.32021 1.41012,0.46677 1.72565,0.81602 0.35261,0.39031 0.49444,0.9242 0.45045,1.69571 -0.0574,1.00603 -0.44999,1.63774 -1.27378,2.04938 l -0.42978,0.21477 h -1.61557 c -1.52126,0 -1.62384,-0.008 -1.75704,-0.14147 z M 54.87607,260.58188 c -0.326188,-0.14817 -0.690044,-0.48911 -0.86698,-0.81237 -0.111686,-0.20405 -0.121719,-0.61008 -0.121719,-4.92615 0,-5.22011 -0.03043,-4.87467 0.473816,-5.37891 0.446269,-0.44627 0.638311,-0.48868 2.220423,-0.49041 1.579952,-0.002 2.119214,0.0877 2.992266,0.49623 0.97409,0.45581 1.99813,1.38522 2.543449,2.30841 1.03652,1.75476 1.034832,4.36322 -0.004,6.14158 -0.179026,0.30648 -0.548039,0.75224 -0.968498,1.16993 -0.550436,0.54681 -0.801825,0.73782 -1.325417,1.00708 -0.995246,0.51181 -1.545917,0.61618 -3.244193,0.61491 -1.217612,-9.2e-4 -1.454298,-0.0191 -1.699172,-0.1303 z m 3.116662,-1.31874 c 1.313989,-0.33401 2.441376,-1.26569 3.080033,-2.54535 0.625456,-1.2532 0.604198,-2.60086 -0.06137,-3.89033 -0.373691,-0.724 -1.35902,-1.6964 -2.066587,-2.03948 -0.691502,-0.3353 -1.153189,-0.44732 -2.093632,-0.508 -0.963503,-0.0622 -1.319932,0.0179 -1.516734,0.34065 -0.132491,0.21729 -0.137987,0.38461 -0.138241,4.20856 -2.83e-4,4.23461 0.0024,4.27058 0.335718,4.46471 0.197836,0.11522 1.973824,0.093 2.46081,-0.0308 z m 8.662022,1.31756 c -0.704049,-0.22788 -1.152394,-0.50771 -1.699982,-1.061 -0.888648,-0.89791 -1.197997,-1.68535 -1.197997,-3.04947 0,-1.36727 0.310648,-2.15657 1.197997,-3.04392 0.579769,-0.57977 1.138961,-0.91725 1.809021,-1.09178 0.552594,-0.14394 1.917063,-0.14397 2.469546,-7e-5 1.525425,0.39733 2.700015,1.66523 2.979544,3.21623 0.124915,0.6931 0.140515,4.6725 0.01922,4.90294 -0.119479,0.22699 -0.195868,0.25832 -0.632733,0.25952 -0.518366,0.001 -0.62988,-0.11531 -0.62988,-0.65932 v -0.40169 l -0.406717,0.27515 c -0.950214,0.64282 -1.438537,0.78824 -2.629975,0.78314 -0.651102,-0.003 -0.993124,-0.0375 -1.278047,-0.12973 z m 2.498249,-1.47697 c 0.87724,-0.41051 1.595245,-1.34442 1.733212,-2.25439 0.17382,-1.14645 -0.560125,-2.43031 -1.714092,-2.99841 -1.242765,-0.61181 -2.713137,-0.15904 -3.581292,1.10277 -0.266754,0.38772 -0.492212,1.07793 -0.492212,1.50684 0,0.79405 0.472464,1.72315 1.149448,2.26041 0.628433,0.49872 1.093704,0.65552 1.859933,0.62681 0.462086,-0.0173 0.658555,-0.0632 1.045003,-0.24403 z m 4.479957,1.48115 c -0.104672,-0.11566 -0.117064,-0.41826 -0.117064,-2.8584 0,-2.47976 0.01224,-2.76839 0.134011,-3.15962 0.171529,-0.55113 0.480068,-1.02945 0.951874,-1.47567 0.72175,-0.6826 1.368869,-0.89261 2.617017,-0.84932 1.028124,0.0357 1.434282,0.16868 2.063803,0.67583 0.483562,0.38956 0.881289,0.92502 1.109659,1.49392 0.153958,0.38354 0.159871,0.48644 0.18252,3.17824 0.02766,3.28603 0.06119,3.12437 -0.64818,3.12437 -0.71875,0 -0.681297,0.14638 -0.681297,-2.66291 0,-2.00082 -0.01904,-2.46835 -0.113499,-2.78642 -0.279326,-0.9406 -1.062508,-1.60411 -1.98038,-1.67779 -0.368245,-0.0296 -0.500142,-0.006 -0.850881,0.15445 -0.501358,0.22882 -0.962024,0.65934 -1.216784,1.13716 l -0.188561,0.35367 -0.03537,2.64062 c -0.04058,3.02963 0.0065,2.84122 -0.709888,2.84122 -0.297604,0 -0.429868,-0.0331 -0.516983,-0.12935 z m 10.966248,0.0232 c -1.182996,-0.32522 -2.311102,-1.35494 -2.740553,-2.50156 -0.356722,-0.95242 -0.338537,-2.40789 0.04193,-3.35528 0.227069,-0.56543 0.777304,-1.29592 1.250822,-1.66058 0.821038,-0.63229 1.541698,-0.86444 2.683484,-0.86444 1.375794,0 1.827688,0.19797 1.827688,0.80068 0,0.21233 -0.04868,0.37386 -0.152395,0.50572 -0.164561,0.2092 -0.241951,0.21275 -1.482148,0.068 -0.733322,-0.0856 -1.509451,0.23745 -2.174961,0.9053 -0.879153,0.88224 -1.10492,2.07832 -0.596233,3.15876 0.244271,0.51883 0.953592,1.2306 1.455241,1.46027 0.635717,0.29104 1.101659,0.34535 1.753878,0.20442 0.871174,-0.18823 1.193018,-0.0212 1.195578,0.62054 0.0013,0.34709 -0.22467,0.58598 -0.649198,0.68607 -0.448832,0.10582 -1.991613,0.088 -2.413133,-0.0279 z m 6.790408,0 c -1.182995,-0.32522 -2.311101,-1.35494 -2.740552,-2.50156 -0.356723,-0.95242 -0.338537,-2.40789 0.04193,-3.35528 0.461174,-1.14838 1.54955,-2.10175 2.759006,-2.41678 0.539251,-0.14045 1.91249,-0.14264 2.433916,-0.004 0.715242,0.19035 1.276576,0.52357 1.841764,1.09332 0.841133,0.84793 1.128559,1.60738 0.760893,2.01046 -0.09845,0.10794 -1.289229,0.68183 -3.122357,1.50482 l -2.963214,1.33035 0.339924,0.29911 c 0.456082,0.40133 1.03802,0.70045 1.561087,0.8024 1.100378,0.21447 2.445813,-0.56885 3.006368,-1.75033 0.124866,-0.26318 0.261997,-0.50189 0.304734,-0.53047 0.04274,-0.0286 0.2558,-0.0525 0.473461,-0.0531 0.515243,-10e-4 0.629881,0.11643 0.629881,0.64747 0,0.57712 -0.316207,1.16448 -0.98492,1.82949 -0.582632,0.57941 -1.144418,0.91791 -1.811993,1.09178 -0.51728,0.13474 -2.042922,0.13604 -2.529929,0.002 z m 3.414819,-5.95113 c 0.06889,-0.0689 -0.541585,-0.52721 -1.03106,-0.77408 -1.09361,-0.55156 -2.173652,-0.33656 -3.12989,0.62304 -0.544499,0.54641 -0.806517,1.12345 -0.845258,1.86149 l -0.03102,0.591 2.501473,-1.13359 c 1.375814,-0.62347 2.5169,-1.14901 2.535751,-1.16786 z m 6.980425,5.92793 c -0.10635,-0.11751 -0.11706,-0.54173 -0.11706,-4.63527 0,-4.36741 0.004,-4.51926 0.1462,-4.9399 0.26395,-0.78354 0.87201,-1.46839 1.60975,-1.81303 0.36033,-0.16834 0.50009,-0.19008 1.36538,-0.21245 0.94098,-0.0243 0.96669,-0.021 1.07868,0.13887 0.14308,0.20427 0.15012,0.75764 0.0121,0.95462 -0.0853,0.12173 -0.20465,0.15366 -0.70697,0.18911 -0.71008,0.0501 -1.15708,0.22369 -1.54833,0.60127 -0.32371,0.31238 -0.52163,0.67413 -0.58473,1.06869 l -0.0463,0.28943 h 1.33946 c 1.57678,0 1.58507,0.003 1.63338,0.58552 0.0292,0.35234 0.0133,0.41396 -0.14924,0.57646 l -0.18195,0.18196 h -1.31178 -1.31179 v 3.43057 c 0,3.33626 -0.004,3.43446 -0.14146,3.57203 -0.19485,0.19485 -0.91278,0.20287 -1.08541,0.0121 z m 5.37574,0 c -0.10599,-0.11712 -0.11706,-0.50362 -0.11706,-4.0868 0,-4.57706 -0.0458,-4.27186 0.64061,-4.27186 0.32608,0 0.45213,0.0317 0.56186,0.14147 0.13808,0.13808 0.14146,0.23577 0.14146,4.0868 0,4.57919 0.0499,4.25974 -0.66501,4.25974 -0.34108,0 -0.47209,-0.0302 -0.56186,-0.12935 z m 4.07855,0.0356 c -0.47078,-0.17357 -0.84423,-0.51104 -1.07369,-0.97024 l -0.22185,-0.44395 v -4.99982 c 0,-5.72563 -0.062,-5.23394 0.65985,-5.23394 0.68128,0 0.68408,0.007 0.68408,1.76834 v 1.4854 h 0.94394 c 1.12709,0 1.17807,0.0283 1.17807,0.65472 0,0.34357 -0.0247,0.41543 -0.18638,0.54261 -0.16572,0.13037 -0.28327,0.14661 -1.061,0.14661 h -0.87463 l 7.1e-4,2.56408 c 7.1e-4,2.37542 0.0101,2.57869 0.13129,2.7625 0.23115,0.35058 0.42402,0.43535 1.08435,0.47661 0.79198,0.0495 0.9059,0.13806 0.9059,0.70428 0,0.5993 -0.0673,0.63783 -1.10194,0.63122 -0.46378,-0.003 -0.94458,-0.0428 -1.06846,-0.0884 z m 3.06553,-0.0356 c -0.10467,-0.11566 -0.11707,-0.41826 -0.11707,-2.8584 0,-2.47976 0.0122,-2.76839 0.13401,-3.15962 0.17153,-0.55113 0.48007,-1.02945 0.95188,-1.47567 0.72175,-0.6826 1.36887,-0.89261 2.61701,-0.84932 1.02813,0.0357 1.43429,0.16868 2.06381,0.67583 0.48356,0.38956 0.88129,0.92502 1.10966,1.49392 0.15396,0.38354 0.15987,0.48644 0.18252,3.17824 0.0277,3.28603 0.0612,3.12437 -0.64818,3.12437 -0.71875,0 -0.6813,0.14638 -0.6813,-2.66291 0,-2.00082 -0.019,-2.46835 -0.1135,-2.78642 -0.27932,-0.9406 -1.06251,-1.60411 -1.98038,-1.67779 -0.36824,-0.0296 -0.50014,-0.006 -0.85088,0.15445 -0.50136,0.22882 -0.96202,0.65934 -1.21678,1.13716 l -0.18857,0.35367 -0.0354,2.64062 c -0.0406,3.02963 0.007,2.84122 -0.70989,2.84122 -0.2976,0 -0.42987,-0.0331 -0.51698,-0.12935 z m 10.89551,0.0232 c -1.18299,-0.32522 -2.3111,-1.35494 -2.74055,-2.50156 -0.35672,-0.95242 -0.33854,-2.40789 0.0419,-3.35528 0.46117,-1.14838 1.54955,-2.10175 2.75901,-2.41678 0.53925,-0.14045 1.91249,-0.14264 2.43391,-0.004 0.71524,0.19035 1.27658,0.52357 1.84177,1.09332 0.84113,0.84793 1.12856,1.60738 0.76089,2.01046 -0.0984,0.10794 -1.28923,0.68183 -3.12236,1.50482 l -2.96321,1.33035 0.33992,0.29911 c 0.45608,0.40133 1.03802,0.70045 1.56109,0.8024 1.10038,0.21447 2.44581,-0.56885 3.00637,-1.75033 0.12486,-0.26318 0.26199,-0.50189 0.30473,-0.53047 0.0427,-0.0286 0.2558,-0.0525 0.47346,-0.0531 0.51525,-10e-4 0.62988,0.11643 0.62988,0.64747 0,0.57712 -0.3162,1.16448 -0.98492,1.82949 -0.58263,0.57941 -1.14441,0.91791 -1.81199,1.09178 -0.51728,0.13474 -2.04292,0.13604 -2.52993,0.002 z m 3.41482,-5.95113 c 0.0689,-0.0689 -0.54158,-0.52721 -1.03106,-0.77408 -1.09361,-0.55156 -2.17365,-0.33656 -3.12989,0.62304 -0.5445,0.54641 -0.80652,1.12345 -0.84526,1.86149 l -0.031,0.591 2.50147,-1.13359 c 1.37581,-0.62347 2.5169,-1.14901 2.53575,-1.16786 z m 2.83156,5.91581 c -0.19236,-0.19235 -0.19603,-0.76567 -0.006,-1.00011 0.13205,-0.16325 0.16724,-0.16778 1.57382,-0.20235 0.8979,-0.0221 1.49193,-0.0662 1.58022,-0.11729 0.22717,-0.13156 0.44451,-0.39478 0.56597,-0.6855 0.25402,-0.60794 -0.15395,-1.06018 -1.2558,-1.39207 -1.55284,-0.46773 -1.91615,-0.65677 -2.20304,-1.14631 -0.38564,-0.65804 -0.38852,-1.9915 -0.006,-2.64471 0.2409,-0.41107 0.8229,-0.91233 1.214,-1.04559 0.25319,-0.0863 0.62278,-0.11261 1.58013,-0.11261 1.13227,0 1.26092,0.0125 1.36973,0.1327 0.28353,0.3133 0.20065,0.97537 -0.14164,1.13133 -0.10266,0.0468 -0.57111,0.0799 -1.12977,0.0799 -0.81116,0 -0.99554,0.021 -1.22855,0.13986 -0.56404,0.28775 -0.7998,0.96377 -0.50338,1.44338 0.21731,0.35162 0.48369,0.49191 1.49051,0.78495 1.1002,0.32021 1.41012,0.46677 1.72564,0.81602 0.35262,0.39031 0.49444,0.9242 0.45046,1.69571 -0.0574,1.00603 -0.45,1.63774 -1.27378,2.04938 l -0.42978,0.21477 h -1.61558 c -1.52126,0 -1.62383,-0.008 -1.75703,-0.14147 z m 5.80014,0 c -0.19236,-0.19235 -0.19603,-0.76567 -0.006,-1.00011 0.13205,-0.16325 0.16724,-0.16778 1.57382,-0.20235 0.8979,-0.0221 1.49193,-0.0662 1.58022,-0.11729 0.22717,-0.13156 0.44451,-0.39478 0.56597,-0.6855 0.25402,-0.60794 -0.15395,-1.06018 -1.2558,-1.39207 -1.55284,-0.46773 -1.91615,-0.65677 -2.20304,-1.14631 -0.38564,-0.65804 -0.38852,-1.9915 -0.006,-2.64471 0.24091,-0.41107 0.8229,-0.91233 1.214,-1.04559 0.25319,-0.0863 0.62279,-0.11261 1.58013,-0.11261 1.13227,0 1.26092,0.0125 1.36973,0.1327 0.28353,0.3133 0.20065,0.97537 -0.14164,1.13133 -0.10266,0.0468 -0.57111,0.0799 -1.12977,0.0799 -0.81116,0 -0.99554,0.021 -1.22855,0.13986 -0.56404,0.28775 -0.7998,0.96377 -0.50338,1.44338 0.21731,0.35162 0.48369,0.49191 1.49051,0.78495 1.1002,0.32021 1.41012,0.46677 1.72564,0.81602 0.35262,0.39031 0.49444,0.9242 0.45046,1.69571 -0.0574,1.00603 -0.45,1.63774 -1.27378,2.04938 l -0.42978,0.21477 h -1.61557 c -1.52127,0 -1.62384,-0.008 -1.75704,-0.14147 z m -29.96772,-10.07652 c -0.29263,-0.12729 -0.37692,-0.29862 -0.37692,-0.76607 0,-0.30889 0.0337,-0.41972 0.17346,-0.57053 0.15307,-0.16516 0.22713,-0.18716 0.63031,-0.18716 0.42331,0 0.4703,0.016 0.63998,0.21763 0.21349,0.25373 0.24885,0.72328 0.0792,1.05142 -0.17089,0.33047 -0.70098,0.44829 -1.146,0.25471 z M 89.077249,206.42633 v -33.91667 h 7.27392 c 4.000651,0 8.806991,-0.0211 10.680751,-0.0469 l 3.40682,-0.0469 v 33.96358 33.9636 H 99.757995 89.077249 Z m -51.829915,33.65143 -8.152027,-0.0183 v -46.82523 -46.82522 h 28.470202 28.470202 v 10.07951 10.07951 H 69.201157 52.366603 v 7.88678 7.88677 h 9.252016 9.252017 l 2.667067,9.84963 c 1.466891,5.4173 2.666841,9.92125 2.666565,10.00878 l -7.07e-4,0.15915 H 64.284979 52.366398 v 18.88582 18.88583 l -3.483621,-0.0174 c -1.915992,-0.01 -7.152033,-0.0256 -11.635648,-0.0357 z M 191.46388,166.03131 c -1.5861,-0.22792 -2.44876,-0.48252 -3.67814,-1.08551 -4.75911,-2.33427 -8.24512,-7.8238 -9.03141,-14.22204 -0.11835,-0.96305 -0.11763,-3.71407 10e-4,-4.6684 0.23947,-1.92279 0.75206,-3.65943 1.54416,-5.23162 1.25408,-2.48916 2.95143,-4.1623 5.18719,-5.11323 2.2947,-0.976 5.23023,-0.91733 7.71569,0.15422 4.31366,1.85971 7.75106,6.37552 9.12255,11.98453 0.41146,1.68276 0.51663,2.63958 0.52198,4.74894 0.006,2.52314 -0.16772,3.75241 -0.80735,5.70021 -1.35476,4.12552 -4.19073,6.91511 -7.72437,7.59807 -0.568,0.10978 -2.41734,0.19722 -2.85153,0.13483 z m -93.438854,-1.30944 c -2.518145,-0.26269 -4.552268,-1.24712 -6.406502,-3.10046 -1.003856,-1.00338 -1.614484,-1.85773 -2.178646,-3.04822 -0.741916,-1.56558 -1.056135,-2.85689 -1.118303,-4.59569 -0.1243,-3.47686 0.884019,-6.08807 3.26398,-8.45264 1.532128,-1.52222 3.318097,-2.50423 5.365144,-2.95001 0.634677,-0.13821 0.927421,-0.15693 2.453629,-0.15693 1.538642,0 1.816252,0.0181 2.475672,0.16106 2.19951,0.47699 3.72326,1.31531 5.34382,2.94005 2.41067,2.41686 3.38319,4.9525 3.26622,8.51595 -0.0613,1.86693 -0.33756,3.06765 -1.03652,4.50483 -0.83785,1.72274 -2.13026,3.22525 -3.72024,4.32503 -0.67716,0.46838 -2.05844,1.15725 -2.796,1.39442 -1.44554,0.46481 -3.256363,0.63535 -4.912254,0.46261 z"
         style="fill:#fefefe;stroke-width:0.07073342" />
    </g>
  </g>
</svg>
